<?xml version="1.0" encoding="UTF-8"?>
<svg xmlns="http://www.w3.org/2000/svg" xmlns:xlink="http://www.w3.org/1999/xlink" width="0" height="0">
<!-- Created with Inkscape (http://www.inkscape.org/) --><symbol id="guitarbody"       width="119.34083"   height="164.29295"   viewBox="0 0 119.34083 164.29295"   sodipodi:docname="guitar.svg"   inkscape:dataloss="true"   xmlns:inkscape="http://www.inkscape.org/namespaces/inkscape"   xmlns:sodipodi="http://sodipodi.sourceforge.net/DTD/sodipodi-0.dtd"     xmlns:svg="http://www.w3.org/2000/svg"><defs     id="defs6"><clipPath       clipPathUnits="userSpaceOnUse"       id="clipPath22"><path         d="M 0,500 H 500 V 0 H 0 Z"         id="path20" /></clipPath></defs><sodipodi:namedview     id="namedview4"     pagecolor="#ffffff"     bordercolor="#000000"     borderopacity="0.25"     inkscape:showpageshadow="2"     inkscape:pageopacity="0.0"     inkscape:pagecheckerboard="true"     inkscape:deskcolor="#d1d1d1"     showgrid="false"     inkscape:zoom="1.7631129"     inkscape:cx="4.25384"     inkscape:cy="165.33258"     inkscape:window-width="1413"     inkscape:window-height="1205"     inkscape:window-x="349"     inkscape:window-y="48"     inkscape:window-maximized="0"     inkscape:current-layer="g18" /><g     id="g10"     inkscape:groupmode="layer"     inkscape:label="Page 1"     transform="matrix(1.3333333,0,0,-1.3333333,-190.45537,390.92342)"><g       id="g16"><g         id="g18"         clip-path="url(#clipPath22)"><g           id="g1822"           transform="translate(228.38201,204.70705)"><path             style=";stroke-width:0.567179"             d="m 256.93193,438.31509 c -11.62638,-1.26541 -26.83561,-4.57413 -34.31925,-7.46603 -11.39635,-4.40388 -22.42624,-13.7651 -26.84056,-22.77994 -3.14941,-6.43167 -4.06573,-10.36313 -4.06573,-17.44398 0,-7.5662 0.90632,-10.29709 9.13285,-27.51858 9.80867,-20.53356 9.21789,-18.82493 9.45204,-27.33679 0.17741,-6.4494 0.0256,-8.0485 -1.2113,-12.76152 -6.3026,-24.01453 -6.5972,-25.4034 -6.5972,-31.10182 0,-8.49508 1.87073,-13.47306 5.60478,-14.91423 2.03323,-0.78473 5.0295,0.96323 12.74792,7.43686 7.70652,6.46364 10.36657,7.95154 14.21573,7.95154 2.18438,0 3.15334,-0.34559 4.94288,-1.76293 l 2.22588,-1.76293 2.96035,2.73546 c 1.62819,1.5045 5.89549,5.58197 9.4829,9.06104 9.61507,9.32472 10.18451,9.75507 14.35533,10.84899 3.32528,0.87215 4.15845,0.89299 7.86877,0.19679 2.28234,-0.42825 6.31916,-0.88654 8.97072,-1.01841 4.59087,-0.22832 4.93954,-0.1598 7.30364,1.4354 5.27187,3.55726 7.17194,8.7678 6.74908,18.50795 -0.22382,5.15564 -0.61205,6.82523 -3.96658,17.05856 -4.67587,14.26419 -5.18977,16.51882 -4.84939,21.27608 0.32884,4.59596 1.89289,8.1779 7.72635,17.69469 5.20204,8.4867 8.35518,15.01974 9.18996,19.04082 0.9603,4.62574 0.41239,12.74504 -1.12914,16.73252 -3.3367,8.63102 -11.21334,14.14554 -22.44186,15.71179 -3.7418,0.52194 -23.1935,0.64828 -27.50817,0.17867 z"             id="path3302"             transform="matrix(0.75000002,0,0,-0.75000002,-228.38201,295.29297)" /></g></g></g></g></symbol><!-- Created with Inkscape (http://www.inkscape.org/) --><symbol id="neck"       width="88.524811"   height="348.6069"   viewBox="0 0 88.524811 348.6069"     xmlns:svg="http://www.w3.org/2000/svg"><defs     id="defs6"><clipPath       clipPathUnits="userSpaceOnUse"       id="clipPath22"><path         d="M 0,500 H 500 V 0 H 0 Z"         id="path20" /></clipPath><clipPath       clipPathUnits="userSpaceOnUse"       id="clipPath58"><path         d="m 111.154,120.777 h 8.024 v -8.024 h -8.024 z"         id="path56" /></clipPath><clipPath       clipPathUnits="userSpaceOnUse"       id="clipPath86"><path         d="m 124.718,128.576 h 8.024 v -8.024 h -8.024 z"         id="path84" /></clipPath><clipPath       clipPathUnits="userSpaceOnUse"       id="clipPath114"><path         d="m 110.629,102.907 h 8.024 v -8.0239 h -8.024 z"         id="path112" /></clipPath><clipPath       clipPathUnits="userSpaceOnUse"       id="clipPath142"><path         d="m 124.193,110.706 h 8.024 v -8.023 h -8.024 z"         id="path140" /></clipPath><clipPath       clipPathUnits="userSpaceOnUse"       id="clipPath362"><path         d="M 78.7259,177.55 H 105.222 V 163.38 H 78.7259 Z"         id="path360" /></clipPath><clipPath       clipPathUnits="userSpaceOnUse"       id="clipPath442"><path         d="m 78.7259,150.849 h 26.4961 v -14.17 H 78.7259 Z"         id="path440" /></clipPath><clipPath       clipPathUnits="userSpaceOnUse"       id="clipPath872"><path         d="m 431.615,104.775 h 9.264 v -7.9616 h -9.264 z"         id="path870" /></clipPath><clipPath       clipPathUnits="userSpaceOnUse"       id="clipPath900"><path         d="m 399.726,164.68 h 20.094 v -5.448 h -20.094 z"         id="path898" /></clipPath><clipPath       clipPathUnits="userSpaceOnUse"       id="clipPath944"><path         d="M 399.726,147.708 H 419.82 V 142.26 H 399.726 Z"         id="path942" /></clipPath><clipPath       clipPathUnits="userSpaceOnUse"       id="clipPath988"><path         d="m 400.203,133.007 h 19.825 v -8.246 h -19.825 z"         id="path986" /></clipPath><clipPath       clipPathUnits="userSpaceOnUse"       id="clipPath1032"><path         d="m 432.612,124.025 h 6.969 v -6.968 h -6.969 z"         id="path1030" /></clipPath><clipPath       clipPathUnits="userSpaceOnUse"       id="clipPath1056"><path         d="m 421.464,129.663 h 6.968 v -6.968 h -6.968 z"         id="path1054" /></clipPath><clipPath       clipPathUnits="userSpaceOnUse"       id="clipPath1104"><path         d="M 399.347,121.126 H 422.85 V 108.834 H 399.347 Z"         id="path1102" /></clipPath><clipPath       clipPathUnits="userSpaceOnUse"       id="clipPath1230"><path         d="m 441.938,115.802 h 6.968 v -6.968 h -6.968 z"         id="path1228" /></clipPath><clipPath       clipPathUnits="userSpaceOnUse"       id="clipPath1474"><path         d="m 293.423,155.248 h 23.792 v -5.05 h -23.792 z"         id="path1472" /></clipPath><clipPath       clipPathUnits="userSpaceOnUse"       id="clipPath1738"><path         d="m 290.264,142.647 h 29.464 v -5.549 h -29.464 z"         id="path1736" /></clipPath><clipPath       clipPathUnits="userSpaceOnUse"       id="clipPath2116"><path         d="m 185.354,167.938 h 24.169 v -13.102 h -24.169 z"         id="path2114" /></clipPath><clipPath       clipPathUnits="userSpaceOnUse"       id="clipPath2176"><path         d="m 185.804,166.221 h 23.669 v -10.568 h -23.669 z"         id="path2174" /></clipPath><clipPath       clipPathUnits="userSpaceOnUse"       id="clipPath2220"><path         d="m 185.354,142.169 h 24.169 v -13.101 h -24.169 z"         id="path2218" /></clipPath><clipPath       clipPathUnits="userSpaceOnUse"       id="clipPath2280"><path         d="m 185.804,140.452 h 23.669 v -10.568 h -23.669 z"         id="path2278" /></clipPath><clipPath       clipPathUnits="userSpaceOnUse"       id="clipPath2344"><path         d="m 218.303,122.769 h 6.968 v -6.968 h -6.968 z"         id="path2342" /></clipPath><clipPath       clipPathUnits="userSpaceOnUse"       id="clipPath2368"><path         d="m 215.073,135.217 h 6.968 v -6.968 h -6.968 z"         id="path2366" /></clipPath><clipPath       clipPathUnits="userSpaceOnUse"       id="clipPath2460"><path         d="M 0,500 H 500 V 0 H 0 Z"         id="path2458" /></clipPath><clipPath       clipPathUnits="userSpaceOnUse"       id="clipPath2468"><path         d="m 169.657,394.088 h 160.687 v -2.09 H 169.657 Z"         id="path2466" /></clipPath><clipPath       clipPathUnits="userSpaceOnUse"       id="clipPath2492"><path         d="M 169.657,459.331 H 330.344 V 457.24 H 169.657 Z"         id="path2490" /></clipPath><clipPath       clipPathUnits="userSpaceOnUse"       id="clipPath2516"><path         d="M 0,500 H 500 V 0 H 0 Z"         id="path2514" /></clipPath></defs><g     id="g10"     transform="matrix(1.3333333,0,0,-1.3333333,-226.28284,473.93236)"><g       id="g16"><g         id="g18"         clip-path="url(#clipPath22)"><g           id="g1826"           transform="translate(207.72,123.5212)"><path             d="m 0,0 c 0,-0.859 -0.697,-1.556 -1.556,-1.556 h -18.287 c -0.859,0 -1.555,0.697 -1.555,1.556 0,0.859 0.696,1.556 1.555,1.556 H -1.556 C -0.697,1.556 0,0.859 0,0"             style="fill:#dedede;fill-opacity:1;fill-rule:nonzero;stroke:none"             id="path1828" /></g><g           id="g1830"           transform="translate(188.2184,122.7914)"><path             d="M 0,0 -0.981,1.331 C -1.088,1.23 -1.179,1.112 -1.222,0.961 -1.349,0.515 -1.091,0.049 -0.645,-0.078 -0.419,-0.143 -0.189,-0.107 0,0"             style="fill:#bfbfbf;fill-opacity:1;fill-rule:nonzero;stroke:none"             id="path1832" /></g><g           id="g1834"           transform="translate(187.3758,124.2384)"><path             d="m 0,0 0.981,-1.331 c 0.114,0.102 0.211,0.225 0.256,0.383 C 1.364,-0.502 1.106,-0.037 0.66,0.091 0.427,0.157 0.192,0.115 0,0"             style="fill:#bfbfbf;fill-opacity:1;fill-rule:nonzero;stroke:none"             id="path1836" /></g><g           id="g1838"           transform="translate(205.6489,122.9228)"><path             d="M 0,0 1.01,1.309 C 0.884,1.384 0.745,1.439 0.588,1.439 0.124,1.439 -0.252,1.062 -0.252,0.598 -0.252,0.364 -0.155,0.152 0,0"             style="fill:#bfbfbf;fill-opacity:1;fill-rule:nonzero;stroke:none"             id="path1840" /></g><g           id="g1842"           transform="translate(206.8087,124.1305)"><path             d="m 0,0 -1.01,-1.309 c 0.13,-0.081 0.274,-0.141 0.438,-0.141 0.464,0 0.841,0.377 0.841,0.841 C 0.269,-0.368 0.163,-0.153 0,0"             style="fill:#bfbfbf;fill-opacity:1;fill-rule:nonzero;stroke:none"             id="path1844" /></g><g           id="g1846"           transform="translate(209.1656,107.6981)"><path             d="m 0,0 c -1.111,4.815 -4.517,9.186 -12.145,9.186 -7.627,0 -11.034,-4.371 -12.145,-9.186 -1.11,-4.815 -0.888,-9.704 -0.296,-11.037 0.593,-1.334 1.495,-1.647 2.518,-1.926 1.629,-0.445 5.998,-0.741 9.923,-0.741 3.925,0 8.294,0.296 9.923,0.741 1.023,0.279 1.926,0.592 2.518,1.926 C 0.889,-9.704 1.111,-4.815 0,0"             style="fill:#dedede;fill-opacity:1;fill-rule:nonzero;stroke:none"             id="path1848" /></g><g           id="g1850"           transform="translate(234.9657,108.4704)"><path             d="m 0,0 c -1.606,2.873 -3.799,6.613 -7.319,13.031 -3.52,6.418 -3.829,12.285 -2.779,16.686 1.05,4.401 5.744,12.653 6.732,18.337 0.988,5.684 -0.277,11.497 -2.972,13.611 -2.696,2.114 -5.696,0.856 -10.934,-0.855 -4.38,-1.432 -11.111,0.78 -13.476,3.12 l -13.686,7.412 c 0,0 -2.223,1.772 -2.841,1.772 -0.618,0 -2.964,-0.856 -5.929,0.306 -2.964,1.161 -6.546,4.95 -8.275,5.745 -1.729,0.795 -3.211,-0.183 -3.705,-2.384 -0.494,-2.2 1.735,-12.285 3.773,-19.803 2.038,-7.518 8.394,-22.828 8.548,-24.49 0.319,-3.465 0.671,-9.273 0.954,-14.839 0.216,-4.235 2.371,-5.474 5.499,-5.474 2.655,0 12.104,0.183 17.044,0.183 4.941,0 6.392,-0.519 7.473,-1.589 1.081,-1.069 5.78,-6.934 10.004,-11.552 4.932,-5.39 10.164,-5.498 11.567,-4.93 C 1.53,-4.961 1.606,-2.873 0,0"             style="fill:#fffbf0;fill-opacity:1;fill-rule:nonzero;stroke:none"             id="path1852" /></g><g           id="g1878"           transform="translate(199.8549,349.3778)"><path             d="m 0,0 -0.711,-1.923 -2.931,1.083 0.711,1.924 z"             style="fill:#a8a8a8;fill-opacity:1;fill-rule:nonzero;stroke:none"             id="path1880" /></g><g           id="g1882"           transform="translate(196.8779,352.3394)"><path             d="m 0,0 c -0.779,0.288 -1.644,-0.11 -1.932,-0.889 l -0.879,-2.376 c -0.288,-0.779 0.11,-1.644 0.889,-1.932 L -1.21,-5.46 v 0 l 0.587,-0.217 c 0.142,-0.052 0.3,0.02 0.353,0.162 l 1.019,2.284 0.712,2.398 c 0.053,0.142 -0.02,0.3 -0.162,0.353 l -0.587,0.217 v 0 z"             style="fill:#b5b5b5;fill-opacity:1;fill-rule:nonzero;stroke:none"             id="path1884" /></g><g           id="g1886"           transform="translate(197.6507,342.3413)"><path             d="m 0,0 -0.711,-1.923 -2.931,1.084 0.711,1.923 z"             style="fill:#a8a8a8;fill-opacity:1;fill-rule:nonzero;stroke:none"             id="path1888" /></g><g           id="g1890"           transform="translate(194.6737,345.3028)"><path             d="m 0,0 c -0.779,0.288 -1.644,-0.11 -1.932,-0.888 l -0.879,-2.377 c -0.288,-0.779 0.11,-1.644 0.889,-1.932 l 0.711,-0.263 h 0.001 l 0.587,-0.217 c 0.142,-0.052 0.3,0.02 0.352,0.162 l 1.02,2.284 0.712,2.398 c 0.052,0.142 -0.02,0.3 -0.162,0.353 l -0.588,0.217 v 0 z"             style="fill:#b5b5b5;fill-opacity:1;fill-rule:nonzero;stroke:none"             id="path1892" /></g><g           id="g1894"           transform="translate(195.4465,335.3049)"><path             d="m 0,0 -0.711,-1.923 -2.931,1.083 0.711,1.924 z"             style="fill:#a8a8a8;fill-opacity:1;fill-rule:nonzero;stroke:none"             id="path1896" /></g><g           id="g1898"           transform="translate(192.4695,338.2663)"><path             d="m 0,0 c -0.779,0.288 -1.644,-0.11 -1.932,-0.888 l -0.879,-2.377 c -0.288,-0.779 0.11,-1.644 0.889,-1.932 L -1.21,-5.46 v 0 l 0.587,-0.217 c 0.142,-0.052 0.3,0.02 0.353,0.162 l 1.019,2.284 0.712,2.398 c 0.053,0.142 -0.02,0.3 -0.162,0.353 l -0.588,0.217 h 0.001 z"             style="fill:#b5b5b5;fill-opacity:1;fill-rule:nonzero;stroke:none"             id="path1900" /></g><g           id="g1902"           transform="translate(193.2423,328.2683)"><path             d="m 0,0 -0.711,-1.923 -2.931,1.083 0.711,1.924 z"             style="fill:#a8a8a8;fill-opacity:1;fill-rule:nonzero;stroke:none"             id="path1904" /></g><g           id="g1906"           transform="translate(190.2653,331.2299)"><path             d="m 0,0 c -0.779,0.288 -1.644,-0.11 -1.932,-0.889 l -0.879,-2.376 c -0.288,-0.779 0.11,-1.644 0.889,-1.932 L -1.21,-5.46 v 0 l 0.587,-0.217 c 0.142,-0.052 0.3,0.02 0.352,0.162 l 1.02,2.284 0.712,2.398 c 0.052,0.142 -0.02,0.3 -0.162,0.353 l -0.587,0.217 v 0 z"             style="fill:#b5b5b5;fill-opacity:1;fill-rule:nonzero;stroke:none"             id="path1908" /></g><g           id="g1910"           transform="translate(191.0381,321.2318)"><path             d="m 0,0 -0.711,-1.923 -2.931,1.084 0.711,1.923 z"             style="fill:#a8a8a8;fill-opacity:1;fill-rule:nonzero;stroke:none"             id="path1912" /></g><g           id="g1914"           transform="translate(188.0611,324.1934)"><path             d="m 0,0 c -0.779,0.288 -1.644,-0.11 -1.932,-0.889 l -0.879,-2.376 c -0.288,-0.779 0.11,-1.644 0.889,-1.932 L -1.21,-5.46 v 0 l 0.587,-0.217 c 0.142,-0.052 0.3,0.02 0.353,0.162 l 1.019,2.284 0.712,2.398 c 0.053,0.142 -0.02,0.3 -0.162,0.353 l -0.588,0.217 v 0 z"             style="fill:#b5b5b5;fill-opacity:1;fill-rule:nonzero;stroke:none"             id="path1916" /></g><g           id="g1918"           transform="translate(188.8339,314.1954)"><path             d="m 0,0 -0.711,-1.923 -2.931,1.083 0.711,1.924 z"             style="fill:#a8a8a8;fill-opacity:1;fill-rule:nonzero;stroke:none"             id="path1920" /></g><g           id="g1922"           transform="translate(185.8569,317.1568)"><path             d="m 0,0 c -0.779,0.288 -1.644,-0.11 -1.932,-0.888 l -0.879,-2.377 c -0.288,-0.779 0.11,-1.644 0.889,-1.932 L -1.21,-5.46 v 0 l 0.587,-0.217 c 0.142,-0.052 0.3,0.02 0.352,0.162 l 1.02,2.284 0.712,2.398 c 0.053,0.142 -0.02,0.3 -0.162,0.353 l -0.588,0.217 h 0.001 z"             style="fill:#b5b5b5;fill-opacity:1;fill-rule:nonzero;stroke:none"             id="path1924" /></g><g           id="g1926"           transform="translate(203.1075,302.2054)"><path             d="m 0,0 h -5.967 -5.967 l -2.651,-130.415 c 0,0 1.272,-1.678 8.618,-1.678 7.347,0 8.619,1.678 8.619,1.678 z"             style="fill:#380401;fill-opacity:1;fill-rule:nonzero;stroke:none"             id="path1928" /></g><g           id="g1930"           transform="translate(208.1747,335.8909)"><path             d="m 0,0 c -0.473,2.608 0.659,3.899 2.266,4.798 1.608,0.899 5.151,4.015 3.457,9.834 -1.798,6.178 -8.984,5.396 -11.253,3.777 -2.27,-1.619 -2.554,-2.698 -4.445,-8.273 -1.891,-5.576 -10.591,-34.352 -10.97,-35.611 -0.378,-1.259 -1.04,-3.057 0,-3.507 1.041,-0.45 4.284,-1.314 4.081,-4.703 h 11.712 c 0,0 -0.587,4.104 2.648,7.94 3.898,4.623 6.367,2.14 6.865,4.211 C 5.322,-17.549 0.473,-2.608 0,0"             style="fill:#d9a977;fill-opacity:1;fill-rule:nonzero;stroke:none"             id="path1932" /></g><g           id="g1934"           transform="translate(203.7267,301.9687)"><path             d="m 0,0 c 0,-0.418 -0.339,-0.757 -0.757,-0.757 h -11.658 c -0.418,0 -0.757,0.339 -0.757,0.757 0,0.418 0.339,0.757 0.757,0.757 H -0.757 C -0.339,0.757 0,0.418 0,0"             style="fill:#e3dacc;fill-opacity:1;fill-rule:nonzero;stroke:none"             id="path1936" /></g><g           id="g1938"           transform="translate(203.4659,346.7825)"><path             d="m 0,0 c 0,-1.004 -0.814,-1.818 -1.818,-1.818 -1.004,0 -1.818,0.814 -1.818,1.818 0,1.004 0.814,1.818 1.818,1.818 C -0.814,1.818 0,1.004 0,0"             style="fill:#a6a6a6;fill-opacity:1;fill-rule:nonzero;stroke:none"             id="path1940" /></g><g           id="g1942"           transform="translate(201.4683,340.0161)"><path             d="m 0,0 c 0,-1.004 -0.814,-1.818 -1.818,-1.818 -1.004,0 -1.818,0.814 -1.818,1.818 0,1.004 0.814,1.818 1.818,1.818 C -0.814,1.818 0,1.004 0,0"             style="fill:#a6a6a6;fill-opacity:1;fill-rule:nonzero;stroke:none"             id="path1944" /></g><g           id="g1946"           transform="translate(199.4709,333.2496)"><path             d="m 0,0 c 0,-1.004 -0.814,-1.818 -1.818,-1.818 -1.004,0 -1.818,0.814 -1.818,1.818 0,1.004 0.814,1.818 1.818,1.818 C -0.814,1.818 0,1.004 0,0"             style="fill:#a6a6a6;fill-opacity:1;fill-rule:nonzero;stroke:none"             id="path1948" /></g><g           id="g1950"           transform="translate(197.4734,326.4831)"><path             d="m 0,0 c 0,-1.004 -0.814,-1.818 -1.818,-1.818 -1.004,0 -1.818,0.814 -1.818,1.818 0,1.004 0.814,1.818 1.818,1.818 C -0.814,1.818 0,1.004 0,0"             style="fill:#a6a6a6;fill-opacity:1;fill-rule:nonzero;stroke:none"             id="path1952" /></g><g           id="g1954"           transform="translate(195.4759,319.7167)"><path             d="m 0,0 c 0,-1.004 -0.814,-1.818 -1.818,-1.818 -1.004,0 -1.818,0.814 -1.818,1.818 0,1.004 0.814,1.818 1.818,1.818 C -0.814,1.818 0,1.004 0,0"             style="fill:#a6a6a6;fill-opacity:1;fill-rule:nonzero;stroke:none"             id="path1956" /></g><g           id="g1958"           transform="translate(193.4785,312.9503)"><path             d="m 0,0 c 0,-1.004 -0.814,-1.818 -1.818,-1.818 -1.004,0 -1.818,0.814 -1.818,1.818 0,1.004 0.814,1.818 1.818,1.818 C -0.814,1.818 0,1.004 0,0"             style="fill:#a6a6a6;fill-opacity:1;fill-rule:nonzero;stroke:none"             id="path1960" /></g><g           id="g1962"           transform="translate(203.525,290.9006)"><path             d="m 0,0 c 0,-0.234 -0.182,-0.423 -0.405,-0.423 h -11.958 c -0.224,0 -0.405,0.189 -0.405,0.423 0,0.234 0.181,0.423 0.405,0.423 H -0.405 C -0.182,0.423 0,0.234 0,0"             style="fill:#e8e3d8;fill-opacity:1;fill-rule:nonzero;stroke:none"             id="path1964" /></g><g           id="g1966"           transform="translate(203.7497,281.4077)"><path             d="m 0,0 c 0,-0.234 -0.178,-0.424 -0.399,-0.424 h -12.42 c -0.22,0 -0.399,0.19 -0.399,0.424 0,0.234 0.179,0.424 0.399,0.424 h 12.42 C -0.178,0.424 0,0.234 0,0"             style="fill:#e8e3d8;fill-opacity:1;fill-rule:nonzero;stroke:none"             id="path1968" /></g><g           id="g1970"           transform="translate(203.9409,271.915)"><path             d="m 0,0 c 0,-0.234 -0.184,-0.424 -0.707,-0.424 h -12.78 c 0.07,0 -0.113,0.19 -0.113,0.424 0,0.234 0.183,0.423 0.41,0.423 H -0.41 C -0.184,0.423 0,0.234 0,0"             style="fill:#e8e3d8;fill-opacity:1;fill-rule:nonzero;stroke:none"             id="path1972" /></g><g           id="g1974"           transform="translate(204.1019,263.4403)"><path             d="m 0,0 c 0,-0.234 -0.185,-0.423 -0.414,-0.423 h -13.095 c -0.228,0 -0.413,0.189 -0.413,0.423 0,0.234 0.185,0.423 0.117,0.423 H -0.71 C -0.185,0.423 0,0.234 0,0"             style="fill:#e8e3d8;fill-opacity:1;fill-rule:nonzero;stroke:none"             id="path1976" /></g><g           id="g1978"           transform="translate(204.2527,255.938)"><path             d="M 0,0 C 0,-0.234 -0.185,-0.424 -0.414,-0.424 H -13.81 c -0.229,0 -0.414,0.19 -0.414,0.424 0,0.234 0.185,0.424 0.414,0.424 H -0.414 C -0.185,0.424 0,0.234 0,0"             style="fill:#e8e3d8;fill-opacity:1;fill-rule:nonzero;stroke:none"             id="path1980" /></g><g           id="g1982"           transform="translate(204.4942,248.0358)"><path             d="m 0,0 c 0,-0.234 -0.19,-0.424 -0.424,-0.424 h -13.859 c -0.234,0 -0.424,0.19 -0.424,0.424 0,0.234 0.19,0.424 0.424,0.424 H -0.424 C -0.19,0.424 0,0.234 0,0"             style="fill:#e8e3d8;fill-opacity:1;fill-rule:nonzero;stroke:none"             id="path1984" /></g><g           id="g1986"           transform="translate(204.4942,241.1998)"><path             d="m 0,0 c 0,-0.234 -0.186,-0.423 -0.416,-0.423 h -13.875 c -0.23,0 -0.416,0.189 -0.416,0.423 0,0.234 0.186,0.424 0.119,0.424 H -0.713 C -0.186,0.424 0,0.234 0,0"             style="fill:#e8e3d8;fill-opacity:1;fill-rule:nonzero;stroke:none"             id="path1988" /></g><g           id="g1990"           transform="translate(204.6792,234.1793)"><path             d="m 0,0 c 0,-0.234 -0.185,-0.424 -0.413,-0.424 h -14.251 c -0.228,0 -0.413,0.19 -0.413,0.424 0,0.234 0.185,0.423 0.413,0.423 H -0.413 C -0.185,0.423 0,0.234 0,0"             style="fill:#e8e3d8;fill-opacity:1;fill-rule:nonzero;stroke:none"             id="path1992" /></g><g           id="g1994"           transform="translate(204.8342,227.7129)"><path             d="m 0,0 c 0,-0.234 -0.186,-0.424 -0.415,-0.424 h -14.557 c -0.229,0 -0.415,0.19 -0.415,0.424 0,0.234 0.186,0.423 0.118,0.423 H -0.712 C -0.186,0.423 0,0.234 0,0"             style="fill:#e8e3d8;fill-opacity:1;fill-rule:nonzero;stroke:none"             id="path1996" /></g><g           id="g1998"           transform="translate(204.9046,221.8932)"><path             d="m 0,0 c 0,-0.234 -0.186,-0.424 -0.416,-0.424 h -14.696 c -0.229,0 -0.416,0.19 -0.416,0.424 0,0.234 0.187,0.423 0.416,0.423 H -0.416 C -0.186,0.423 0,0.234 0,0"             style="fill:#e8e3d8;fill-opacity:1;fill-rule:nonzero;stroke:none"             id="path2000" /></g><g           id="g2002"           transform="translate(205.1208,216.0735)"><path             d="m 0,0 c 0,-0.234 -0.19,-0.424 -0.424,-0.424 h -15.113 c -0.234,0 -0.423,0.19 -0.423,0.424 0,0.234 0.189,0.423 0.423,0.423 H -0.424 C -0.19,0.423 0,0.234 0,0"             style="fill:#e8e3d8;fill-opacity:1;fill-rule:nonzero;stroke:none"             id="path2004" /></g><g           id="g2006"           transform="translate(205.1628,210.6233)"><path             d="m 0,0 c 0,-0.234 -0.19,-0.424 -0.423,-0.424 h -15.198 c -0.233,0 -0.423,0.19 -0.423,0.424 0,0.234 0.19,0.423 0.127,0.423 H -0.72 C -0.19,0.423 0,0.234 0,0"             style="fill:#e8e3d8;fill-opacity:1;fill-rule:nonzero;stroke:none"             id="path2008" /></g><g           id="g2010"           transform="translate(205.2194,205.5933)"><path             d="m 0,0 c 0,-0.234 -0.19,-0.424 -0.424,-0.424 h -15.31 c -0.234,0 -0.423,0.19 -0.423,0.424 0,0.234 0.189,0.423 0.423,0.423 h 15.31 C -0.19,0.423 0,0.234 0,0"             style="fill:#e8e3d8;fill-opacity:1;fill-rule:nonzero;stroke:none"             id="path2012" /></g><g           id="g2014"           transform="translate(205.2342,200.8821)"><path             d="m 0,0 c 0,-0.234 -0.19,-0.423 -0.424,-0.423 h -15.339 c -0.234,0 -0.424,0.189 -0.424,0.423 0,0.234 0.19,0.424 0.127,0.424 H -0.72 C -0.19,0.424 0,0.234 0,0"             style="fill:#e8e3d8;fill-opacity:1;fill-rule:nonzero;stroke:none"             id="path2016" /></g><g           id="g2018"           transform="translate(205.3775,195.843)"><path             d="M 0,0 C 0,-0.234 -0.19,-0.424 -0.424,-0.424 H -16.05 c -0.234,0 -0.423,0.19 -0.423,0.424 0,0.234 0.189,0.423 0.423,0.423 H -0.424 C -0.19,0.423 0,0.234 0,0"             style="fill:#e8e3d8;fill-opacity:1;fill-rule:nonzero;stroke:none"             id="path2020" /></g><g           id="g2022"           transform="translate(205.5386,191.7784)"><path             d="m 0,0 c 0,-0.234 -0.19,-0.423 -0.424,-0.423 h -15.948 c -0.234,0 -0.424,0.189 -0.424,0.423 0,0.234 0.19,0.424 0.424,0.424 H -0.424 C -0.19,0.424 0,0.234 0,0"             style="fill:#e8e3d8;fill-opacity:1;fill-rule:nonzero;stroke:none"             id="path2024" /></g><g           id="g2026"           transform="translate(205.6722,187.8986)"><path             d="m 0,0 c 0,-0.234 -0.195,-0.424 -0.436,-0.424 h -16.191 c -0.241,0 -0.436,0.19 -0.436,0.424 0,0.234 0.195,0.424 0.436,0.424 H -0.436 C -0.195,0.424 0,0.234 0,0"             style="fill:#e8e3d8;fill-opacity:1;fill-rule:nonzero;stroke:none"             id="path2028" /></g><g           id="g2030"           transform="translate(205.7592,183.5639)"><path             d="m 0,0 c 0,-0.234 -0.198,-0.424 -0.441,-0.424 h -16.355 c -0.243,0 -0.441,0.19 -0.441,0.424 0,0.234 0.198,0.423 0.145,0.423 H -0.738 C -0.198,0.423 0,0.234 0,0"             style="fill:#e8e3d8;fill-opacity:1;fill-rule:nonzero;stroke:none"             id="path2032" /></g><g           id="g2034"           transform="translate(205.7592,179.6385)"><path             d="m 0,0 c 0,-0.234 -0.196,-0.424 -0.734,-0.424 h -16.363 c 0.056,0 -0.14,0.19 -0.14,0.424 0,0.234 0.196,0.423 0.437,0.423 H -0.437 C -0.196,0.423 0,0.234 0,0"             style="fill:#e8e3d8;fill-opacity:1;fill-rule:nonzero;stroke:none"             id="path2036" /></g><g           id="g2038"           transform="translate(205.8948,175.7343)"><path             d="m 0,0 c 0,-0.234 -0.197,-0.423 -0.44,-0.423 h -16.628 c -0.243,0 -0.44,0.189 -0.44,0.423 0,0.234 0.197,0.424 0.44,0.424 H -0.44 C -0.197,0.424 0,0.234 0,0"             style="fill:#e8e3d8;fill-opacity:1;fill-rule:nonzero;stroke:none"             id="path2040" /></g><g           id="g2042"           transform="translate(198.1581,276.459)"><path             d="m 0,0 c 0,-0.562 -0.455,-1.017 -1.017,-1.017 -0.562,0 -1.018,0.455 -1.018,1.017 0,0.562 0.456,1.017 1.018,1.017 C -0.455,1.017 0,0.562 0,0"             style="fill:#d4d4d4;fill-opacity:1;fill-rule:nonzero;stroke:none"             id="path2044" /></g><g           id="g2046"           transform="translate(198.158,259.4707)"><path             d="m 0,0 c 0,-0.562 -0.455,-1.017 -1.017,-1.017 -0.562,0 -1.018,0.455 -1.018,1.017 0,0.562 0.456,1.017 1.018,1.017 C -0.455,1.017 0,0.562 0,0"             style="fill:#d4d4d4;fill-opacity:1;fill-rule:nonzero;stroke:none"             id="path2048" /></g><g           id="g2050"           transform="translate(198.158,244.2117)"><path             d="m 0,0 c 0,-0.562 -0.455,-1.017 -1.017,-1.017 -0.562,0 -1.018,0.455 -1.018,1.017 0,0.562 0.456,1.017 1.018,1.017 C -0.455,1.017 0,0.562 0,0"             style="fill:#d4d4d4;fill-opacity:1;fill-rule:nonzero;stroke:none"             id="path2052" /></g><g           id="g2054"           transform="translate(198.158,208.0941)"><path             d="m 0,0 c 0,-0.562 -0.455,-1.017 -1.017,-1.017 -0.562,0 -1.018,0.455 -1.018,1.017 0,0.562 0.456,1.017 1.018,1.017 C -0.455,1.017 0,0.562 0,0"             style="fill:#d4d4d4;fill-opacity:1;fill-rule:nonzero;stroke:none"             id="path2056" /></g><g           id="g2058"           transform="translate(198.158,198.1661)"><path             d="m 0,0 c 0,-0.562 -0.455,-1.017 -1.017,-1.017 -0.562,0 -1.018,0.455 -1.018,1.017 0,0.562 0.456,1.017 1.018,1.017 C -0.455,1.017 0,0.562 0,0"             style="fill:#d4d4d4;fill-opacity:1;fill-rule:nonzero;stroke:none"             id="path2060" /></g><g           id="g2062"           transform="translate(198.158,189.7629)"><path             d="m 0,0 c 0,-0.562 -0.455,-1.017 -1.017,-1.017 -0.562,0 -1.018,0.455 -1.018,1.017 0,0.562 0.456,1.017 1.018,1.017 C -0.455,1.017 0,0.562 0,0"             style="fill:#d4d4d4;fill-opacity:1;fill-rule:nonzero;stroke:none"             id="path2064" /></g><g           id="g2066"           transform="translate(198.158,177.6576)"><path             d="m 0,0 c 0,-0.562 -0.455,-1.017 -1.017,-1.017 -0.562,0 -1.018,0.455 -1.018,1.017 0,0.562 0.456,1.017 1.018,1.017 C -0.455,1.017 0,0.562 0,0"             style="fill:#d4d4d4;fill-opacity:1;fill-rule:nonzero;stroke:none"             id="path2068" /></g><g           id="g2070"           transform="translate(194.0623,224.4534)"><path             d="m 0,0 c 0,-0.562 -0.456,-1.017 -1.017,-1.017 -0.562,0 -1.018,0.455 -1.018,1.017 0,0.562 0.456,1.017 1.018,1.017 C -0.456,1.017 0,0.562 0,0"             style="fill:#d4d4d4;fill-opacity:1;fill-rule:nonzero;stroke:none"             id="path2072" /></g><g           id="g2074"           transform="translate(202.2539,224.4534)"><path             d="m 0,0 c 0,-0.562 -0.456,-1.017 -1.017,-1.017 -0.562,0 -1.018,0.455 -1.018,1.017 0,0.562 0.456,1.017 1.018,1.017 C -0.456,1.017 0,0.562 0,0"             style="fill:#d4d4d4;fill-opacity:1;fill-rule:nonzero;stroke:none"             id="path2076" /></g><g           id="g2090"           transform="translate(204.4709,106.7372)"><path             d="m 0,0 c 0,0 7.899,21.335 8.306,25.325 0.165,1.614 0.23,17.593 0.23,17.593"             style="fill:none;stroke:#bababa;stroke-width:1;stroke-linecap:round;stroke-linejoin:round;stroke-miterlimit:10;stroke-dasharray:none;stroke-opacity:1"             id="path2092" /></g><g           id="g2094"           transform="translate(214.4958,149.581)"><path             d="m 0,0 c 0.008,-3.09 -0.639,-5.597 -1.445,-5.599 -0.807,-0.002 -1.468,2.501 -1.476,5.591 -0.008,3.09 0.639,5.597 1.446,5.599 C -0.669,5.593 -0.008,3.09 0,0"             style="fill:#e6deca;fill-opacity:1;fill-rule:nonzero;stroke:none"             id="path2096" /></g><g           id="g2186"           transform="translate(208.9732,157.1221)"><path             d="M 0,0 C 0,-0.535 -0.434,-0.969 -0.969,-0.969 H -22.7 c -0.535,0 -0.969,0.434 -0.969,0.969 v 8.63 c 0,0.535 0.434,0.969 0.969,0.969 H -0.969 C -0.434,9.599 0,9.165 0,8.63 Z"             style="fill:#f5efe1;fill-opacity:1;fill-rule:nonzero;stroke:none"             id="path2188" /></g><g           id="g2190"           transform="translate(191.4789,161.4369)"><path             d="m 0,0 c 0,-0.466 -0.378,-0.844 -0.844,-0.844 -0.466,0 -0.843,0.378 -0.843,0.844 0,0.466 0.377,0.844 0.843,0.844 C -0.378,0.844 0,0.466 0,0"             style="fill:#bfbfbf;fill-opacity:1;fill-rule:nonzero;stroke:none"             id="path2192" /></g><g           id="g2194"           transform="translate(194.0802,161.4369)"><path             d="m 0,0 c 0,-0.466 -0.378,-0.844 -0.844,-0.844 -0.466,0 -0.843,0.378 -0.843,0.844 0,0.466 0.377,0.844 0.843,0.844 C -0.378,0.844 0,0.466 0,0"             style="fill:#bfbfbf;fill-opacity:1;fill-rule:nonzero;stroke:none"             id="path2196" /></g><g           id="g2198"           transform="translate(196.6815,161.4369)"><path             d="m 0,0 c 0,-0.466 -0.378,-0.844 -0.844,-0.844 -0.466,0 -0.843,0.378 -0.843,0.844 0,0.466 0.377,0.844 0.843,0.844 C -0.378,0.844 0,0.466 0,0"             style="fill:#bfbfbf;fill-opacity:1;fill-rule:nonzero;stroke:none"             id="path2200" /></g><g           id="g2202"           transform="translate(199.2828,161.4369)"><path             d="m 0,0 c 0,-0.466 -0.378,-0.844 -0.844,-0.844 -0.466,0 -0.843,0.378 -0.843,0.844 0,0.466 0.377,0.844 0.843,0.844 C -0.378,0.844 0,0.466 0,0"             style="fill:#bfbfbf;fill-opacity:1;fill-rule:nonzero;stroke:none"             id="path2204" /></g><g           id="g2206"           transform="translate(201.8841,161.4369)"><path             d="m 0,0 c 0,-0.466 -0.378,-0.844 -0.844,-0.844 -0.466,0 -0.843,0.378 -0.843,0.844 0,0.466 0.377,0.844 0.843,0.844 C -0.378,0.844 0,0.466 0,0"             style="fill:#bfbfbf;fill-opacity:1;fill-rule:nonzero;stroke:none"             id="path2208" /></g><g           id="g2210"           transform="translate(204.4854,161.4369)"><path             d="m 0,0 c 0,-0.466 -0.378,-0.844 -0.844,-0.844 -0.466,0 -0.843,0.378 -0.843,0.844 0,0.466 0.377,0.844 0.843,0.844 C -0.378,0.844 0,0.466 0,0"             style="fill:#bfbfbf;fill-opacity:1;fill-rule:nonzero;stroke:none"             id="path2212" /></g><g           id="g2290"           transform="translate(208.9732,131.3536)"><path             d="M 0,0 C 0,-0.535 -0.434,-0.969 -0.969,-0.969 H -22.7 c -0.535,0 -0.969,0.434 -0.969,0.969 v 8.629 c 0,0.536 0.434,0.97 0.969,0.97 H -0.969 C -0.434,9.599 0,9.165 0,8.629 Z"             style="fill:#f5efe1;fill-opacity:1;fill-rule:nonzero;stroke:none"             id="path2292" /></g><g           id="g2294"           transform="translate(191.4789,135.6683)"><path             d="m 0,0 c 0,-0.466 -0.378,-0.844 -0.844,-0.844 -0.466,0 -0.843,0.378 -0.843,0.844 0,0.466 0.377,0.844 0.843,0.844 C -0.378,0.844 0,0.466 0,0"             style="fill:#bfbfbf;fill-opacity:1;fill-rule:nonzero;stroke:none"             id="path2296" /></g><g           id="g2298"           transform="translate(194.0802,135.6683)"><path             d="m 0,0 c 0,-0.466 -0.378,-0.844 -0.844,-0.844 -0.466,0 -0.843,0.378 -0.843,0.844 0,0.466 0.377,0.844 0.843,0.844 C -0.378,0.844 0,0.466 0,0"             style="fill:#bfbfbf;fill-opacity:1;fill-rule:nonzero;stroke:none"             id="path2300" /></g><g           id="g2302"           transform="translate(196.6815,135.6683)"><path             d="m 0,0 c 0,-0.466 -0.378,-0.844 -0.844,-0.844 -0.466,0 -0.843,0.378 -0.843,0.844 0,0.466 0.377,0.844 0.843,0.844 C -0.378,0.844 0,0.466 0,0"             style="fill:#bfbfbf;fill-opacity:1;fill-rule:nonzero;stroke:none"             id="path2304" /></g><g           id="g2306"           transform="translate(199.2828,135.6683)"><path             d="m 0,0 c 0,-0.466 -0.378,-0.844 -0.844,-0.844 -0.466,0 -0.843,0.378 -0.843,0.844 0,0.466 0.377,0.844 0.843,0.844 C -0.378,0.844 0,0.466 0,0"             style="fill:#bfbfbf;fill-opacity:1;fill-rule:nonzero;stroke:none"             id="path2308" /></g><g           id="g2310"           transform="translate(201.8841,135.6683)"><path             d="m 0,0 c 0,-0.466 -0.378,-0.844 -0.844,-0.844 -0.466,0 -0.843,0.378 -0.843,0.844 0,0.466 0.377,0.844 0.843,0.844 C -0.378,0.844 0,0.466 0,0"             style="fill:#bfbfbf;fill-opacity:1;fill-rule:nonzero;stroke:none"             id="path2312" /></g><g           id="g2314"           transform="translate(204.4854,135.6683)"><path             d="m 0,0 c 0,-0.466 -0.378,-0.844 -0.844,-0.844 -0.466,0 -0.843,0.378 -0.843,0.844 0,0.466 0.377,0.844 0.843,0.844 C -0.378,0.844 0,0.466 0,0"             style="fill:#bfbfbf;fill-opacity:1;fill-rule:nonzero;stroke:none"             id="path2316" /></g><g           id="g2318"           transform="translate(232.556,107.5727)"><path             d="m 0,0 c 0,-1.233 -1,-2.233 -2.233,-2.233 -1.233,0 -2.233,1 -2.233,2.233 0,1.233 1,2.233 2.233,2.233 C -1,2.233 0,1.233 0,0"             style="fill:#dedede;fill-opacity:1;fill-rule:nonzero;stroke:none"             id="path2320" /></g><g           id="g2322"           transform="translate(231.4645,107.5727)"><path             d="m 0,0 c 0,-0.63 -0.511,-1.141 -1.141,-1.141 -0.631,0 -1.142,0.511 -1.142,1.141 0,0.63 0.511,1.141 1.142,1.141 C -0.511,1.141 0,0.63 0,0"             style="fill:#bfbfbf;fill-opacity:1;fill-rule:nonzero;stroke:none"             id="path2324" /></g><g           id="g2326"           transform="translate(229.2979,160.988)"><path             d="m 0,0 c 0,-1.294 -1.049,-2.342 -2.342,-2.342 -1.294,0 -2.343,1.048 -2.343,2.342 0,1.294 1.049,2.342 2.343,2.342 C -1.049,2.342 0,1.294 0,0"             style="fill:#f2ede1;fill-opacity:1;fill-rule:nonzero;stroke:none"             id="path2328" /></g><g           id="g2330"           transform="translate(228.0113,160.988)"><path             d="m 0,0 c 0,-0.583 -0.473,-1.056 -1.056,-1.056 -0.583,0 -1.055,0.473 -1.055,1.056 0,0.583 0.472,1.056 1.055,1.056 C -0.473,1.056 0,0.583 0,0"             style="fill:#d1cdc2;fill-opacity:1;fill-rule:nonzero;stroke:none"             id="path2332" /></g><g           id="g2334"           transform="translate(228.4672,162.2352)"><path             d="m 0,0 c -0.375,-1.127 -1.021,-1.927 -1.441,-1.786 -0.421,0.14 -0.458,1.167 -0.082,2.293 0.375,1.127 1.02,1.927 1.441,1.787 C 0.339,2.154 0.375,1.127 0,0"             style="fill:#e6deca;fill-opacity:1;fill-rule:nonzero;stroke:none"             id="path2336" /></g><g           id="g2354"           transform="translate(224.7715,119.7849)"><path             d="m 0,0 c 0,-1.924 -1.56,-3.484 -3.484,-3.484 -1.924,0 -3.484,1.56 -3.484,3.484 0,1.924 1.56,3.484 3.484,3.484 C -1.56,3.484 0,1.924 0,0"             style="fill:#f2ede1;fill-opacity:1;fill-rule:nonzero;stroke:none"             id="path2356" /></g><g           id="g2358"           transform="translate(223.3219,119.7849)"><path             d="m 0,0 c 0,-1.124 -0.911,-2.035 -2.035,-2.035 -1.123,0 -2.034,0.911 -2.034,2.035 0,1.124 0.911,2.035 2.034,2.035 C -0.911,2.035 0,1.124 0,0"             style="fill:#fffaed;fill-opacity:1;fill-rule:nonzero;stroke:none"             id="path2360" /></g><g           id="g2378"           transform="translate(221.5413,132.2328)"><path             d="m 0,0 c 0,-1.924 -1.56,-3.484 -3.484,-3.484 -1.924,0 -3.484,1.56 -3.484,3.484 0,1.924 1.56,3.484 3.484,3.484 C -1.56,3.484 0,1.924 0,0"             style="fill:#f2ede1;fill-opacity:1;fill-rule:nonzero;stroke:none"             id="path2380" /></g><g           id="g2382"           transform="translate(220.0918,132.2328)"><path             d="m 0,0 c 0,-1.124 -0.911,-2.035 -2.035,-2.035 -1.123,0 -2.034,0.911 -2.034,2.035 0,1.124 0.911,2.035 2.034,2.035 C -0.911,2.035 0,1.124 0,0"             style="fill:#fffaed;fill-opacity:1;fill-rule:nonzero;stroke:none"             id="path2384" /></g><g           id="g2386"           transform="translate(191.6836,312.9503)"><path             d="M 0,0 0.049,-11.14 -1.553,-214.63"             style="fill:none;stroke:#ffffff;stroke-width:0.5;stroke-linecap:round;stroke-linejoin:round;stroke-miterlimit:10;stroke-dasharray:none;stroke-opacity:1"             id="path2388" /></g><g           id="g2390"           transform="translate(193.6801,319.6611)"><path             d="M 0,0 0.225,-17.851 -0.852,-221.302"             style="fill:none;stroke:#ffffff;stroke-width:0.45;stroke-linecap:round;stroke-linejoin:round;stroke-miterlimit:10;stroke-dasharray:none;stroke-opacity:1"             id="path2392" /></g><g           id="g2394"           transform="translate(195.6971,326.5151)"><path             d="M 0,0 0.38,-24.705 -0.124,-228.117"             style="fill:none;stroke:#ffffff;stroke-width:0.4;stroke-linecap:round;stroke-linejoin:round;stroke-miterlimit:10;stroke-dasharray:none;stroke-opacity:1"             id="path2396" /></g><g           id="g2398"           transform="translate(197.7142,333.2867)"><path             d="M 0,0 0.534,-31.476 0.609,-234.738"             style="fill:none;stroke:#ffffff;stroke-width:0.3;stroke-linecap:round;stroke-linejoin:round;stroke-miterlimit:10;stroke-dasharray:none;stroke-opacity:1"             id="path2400" /></g><g           id="g2402"           transform="translate(199.7829,339.9372)"><path             d="M 0,0 0.637,-38.127 1.429,-241.674"             style="fill:none;stroke:#ffffff;stroke-width:0.3;stroke-linecap:round;stroke-linejoin:round;stroke-miterlimit:10;stroke-dasharray:none;stroke-opacity:1"             id="path2404" /></g><g           id="g2406"           transform="translate(201.6866,346.8299)"><path             d="M 0,0 0.905,-45.02 2.168,-248.431"             style="fill:none;stroke:#ffffff;stroke-width:0.3;stroke-linecap:round;stroke-linejoin:round;stroke-miterlimit:10;stroke-dasharray:none;stroke-opacity:1"             id="path2408" /></g><g           id="g2418"           transform="translate(205.9832,96.7827)"><path             d="m 0,0 c 0,-0.285 -0.231,-0.516 -0.516,-0.516 h -16.893 c -0.285,0 -0.516,0.231 -0.516,0.516 v 1.377 c 0,0.285 0.231,0.516 0.516,0.516 H -0.516 C -0.231,1.893 0,1.662 0,1.377 Z"             style="fill:#bababa;fill-opacity:1;fill-rule:nonzero;stroke:none"             id="path2420" /></g></g></g></g></symbol></svg>
